HIERARCHY
ROOT joint_Root
{
	OFFSET 0.0 0.0 0.0
	CHANNELS 6 Xposition Yposition Zposition Zrotation Xrotation Yrotation 
	JOINT Hips
	{
		OFFSET -0.726466 93.3139 -2.00062
		CHANNELS 6 Xposition Yposition Zposition Zrotation Xrotation Yrotation 
		JOINT Spine
		{
			OFFSET 15.7357 0.0 0.0
			CHANNELS 6 Xposition Yposition Zposition Zrotation Xrotation Yrotation 
			JOINT Chest
			{
				OFFSET 8.98455 -0.406207 0.0
				CHANNELS 6 Xposition Yposition Zposition Zrotation Xrotation Yrotation 
				JOINT Neck
				{
					OFFSET 16.3773 0.0 0.0
					CHANNELS 6 Xposition Yposition Zposition Zrotation Xrotation Yrotation 
					JOINT Head
					{
						OFFSET 6.45672 0.0 0.0
						CHANNELS 6 Xposition Yposition Zposition Zrotation Xrotation Yrotation 
						End Site
						{
							OFFSET 0.0 0.0 0.0
						}
					}
				}
				JOINT Shoulder_L
				{
					OFFSET 12.9942 -0.242716 4.98039
					CHANNELS 6 Xposition Yposition Zposition Zrotation Xrotation Yrotation 
					JOINT UpperArm_L
					{
						OFFSET 5.34809 0.0 0.0
						CHANNELS 6 Xposition Yposition Zposition Zrotation Xrotation Yrotation 
						JOINT LowerArm_L
						{
							OFFSET 24.3286 1.87007e-05 0.0
							CHANNELS 6 Xposition Yposition Zposition Zrotation Xrotation Yrotation 
							JOINT Hand_L
							{
								OFFSET 22.2916 0.0 0.0
								CHANNELS 6 Xposition Yposition Zposition Zrotation Xrotation Yrotation 
								End Site
								{
									OFFSET 0.0 0.0 0.0
								}
							}
						}
					}
				}
				JOINT Shoulder_R
				{
					OFFSET 12.9945 -0.242716 -4.98039
					CHANNELS 6 Xposition Yposition Zposition Zrotation Xrotation Yrotation 
					JOINT UpperArm_R
					{
						OFFSET -5.34813 0.0 0.0
						CHANNELS 6 Xposition Yposition Zposition Zrotation Xrotation Yrotation 
						JOINT LowerArm_R
						{
							OFFSET -24.3289 0.000322201 0.0
							CHANNELS 6 Xposition Yposition Zposition Zrotation Xrotation Yrotation 
							JOINT Hand_R
							{
								OFFSET -22.2915 -0.000108084 0.0
								CHANNELS 6 Xposition Yposition Zposition Zrotation Xrotation Yrotation 
								End Site
								{
									OFFSET 0.0 0.0 0.0
								}
							}
						}
					}
				}
			}
		}
		JOINT UpperLeg_L
		{
			OFFSET -2.19248 -6.46944 0.0
			CHANNELS 6 Xposition Yposition Zposition Zrotation Xrotation Yrotation 
			JOINT LowerLeg_L
			{
				OFFSET 39.0811 0.0 -1.23785e-05
				CHANNELS 6 Xposition Yposition Zposition Zrotation Xrotation Yrotation 
				JOINT Foot_L
				{
					OFFSET 40.9854 0.0 -1.26872e-05
					CHANNELS 6 Xposition Yposition Zposition Zrotation Xrotation Yrotation 
					JOINT Toes_L
					{
						OFFSET 11.7543 0.0 0.0
						CHANNELS 6 Xposition Yposition Zposition Zrotation Xrotation Yrotation 
						End Site
						{
							OFFSET 0.0 0.0 0.0
						}
					}
				}
			}
		}
		JOINT UpperLeg_R
		{
			OFFSET -2.19251 6.46944 0.0
			CHANNELS 6 Xposition Yposition Zposition Zrotation Xrotation Yrotation 
			JOINT LowerLeg_R
			{
				OFFSET -39.0811 -0.00228153 -0.0401928
				CHANNELS 6 Xposition Yposition Zposition Zrotation Xrotation Yrotation 
				JOINT Foot_R
				{
					OFFSET -40.9854 0.0 0.0
					CHANNELS 6 Xposition Yposition Zposition Zrotation Xrotation Yrotation 
					JOINT Toes_R
					{
						OFFSET -11.7543 0.0 0.0
						CHANNELS 6 Xposition Yposition Zposition Zrotation Xrotation Yrotation 
						End Site
						{
							OFFSET 0.0 0.0 0.0
						}
					}
				}
			}
		}
	}
}
MOTION
Frames:	6
Frame Time:	0.0333333
0.000000 0.000000 0.000000 0.000000 0.000000 -0.000000 148.689000 91.576700 -115.809000 84.935900 6.403970 0.429121 15.735700 0.000005 -0.000001 67.513700 82.883600 -66.528000 8.984550 -0.406207 -0.000000 5.451870 -5.451040 2.230180 16.377300 -0.000001 -0.000001 1.262960 -4.275290 -0.034260 6.456720 -0.000001 -0.000000 -0.516986 -3.113650 0.331503 12.994200 -0.242716 4.980390 -89.448000 -1.989610 -74.490300 5.348090 -0.000007 -0.000001 -51.413300 30.614500 -44.975800 24.328600 0.000019 0.000005 -0.746851 -0.760563 -44.480900 22.291600 -0.000001 0.000005 11.277800 5.558290 -9.103080 12.994500 -0.242716 -4.980390 88.303300 4.873580 -70.777800 -5.348130 -0.000001 -0.000004 -71.890200 25.658400 -1.542720 -24.328900 0.000322 -0.000009 2.067420 12.967400 -9.143490 -22.291500 -0.000108 -0.000004 8.470250 5.330980 -0.814813 -2.192480 -6.469440 -0.000000 -175.820000 -13.176700 7.329720 39.081100 -0.000007 -0.000012 0.001045 -0.004317 13.613800 40.985400 -0.000006 -0.000013 5.471090 18.930200 -72.511400 11.754300 -0.000000 0.000003 -0.006060 -0.071393 -19.482400 -2.192510 6.469440 -0.000001 -171.847000 17.423700 155.136000 -39.081100 -0.002282 -0.040193 0.001788 0.004370 19.355800 -40.985400 0.000008 0.000006 -5.932030 -0.755522 -51.867700 -11.754300 -0.000006 -0.000006 -0.026591 -0.201391 -24.815900
0.000000 0.000000 0.000000 0.000000 0.000000 -0.000000 148.580000 91.030900 -113.440000 85.387500 6.749440 -0.204025 15.735700 0.000005 -0.000001 65.000900 83.060800 -64.009800 8.984550 -0.406207 -0.000000 4.884410 -5.878700 2.232260 16.377300 -0.000001 -0.000001 1.361100 -4.169960 -0.020400 6.456720 -0.000001 -0.000000 -0.286688 -2.810960 0.384251 12.994200 -0.242716 4.980390 -89.395900 -2.183730 -74.532600 5.348090 -0.000007 -0.000001 -50.436100 29.517600 -46.287600 24.328600 0.000019 0.000005 -0.583079 -0.565272 -45.891400 22.291600 -0.000001 0.000005 11.484000 5.562310 -9.300480 12.994500 -0.242716 -4.980390 88.304800 4.801010 -70.526500 -5.348130 -0.000001 -0.000004 -71.399300 24.767500 -0.955471 -24.328900 0.000322 -0.000009 1.939780 13.003400 -8.564420 -22.291500 -0.000108 -0.000004 8.814250 5.324090 -0.613722 -2.192480 -6.469440 -0.000000 -175.306000 -13.267400 7.937420 39.081100 -0.000007 -0.000012 -0.022264 0.086010 14.512400 40.985400 -0.000006 -0.000013 4.083550 20.640600 -73.167600 11.754300 -0.000000 0.000003 -0.009226 -0.097773 -20.559600 -2.192510 6.469440 -0.000001 -168.291000 21.373600 153.408000 -39.081100 -0.002282 -0.040193 0.003647 -0.001265 13.992300 -40.985400 0.000008 0.000006 -7.880710 0.538642 -50.437100 -11.754300 -0.000006 -0.000006 -0.026690 -0.201874 -24.836000
0.000000 0.000000 0.000000 0.000000 0.000000 -0.000000 148.435000 90.425500 -110.688000 85.678900 7.586670 -0.818667 15.735700 0.000005 -0.000001 61.844700 83.202700 -60.747600 8.984550 -0.406207 -0.000000 4.304920 -6.437730 2.435720 16.377300 -0.000001 -0.000001 1.323860 -4.240930 -0.013434 6.456720 -0.000001 -0.000000 -0.029981 -2.615730 0.407855 12.994200 -0.242716 4.980390 -89.365500 -2.309950 -74.635000 5.348090 -0.000007 -0.000001 -50.101000 28.925400 -46.440800 24.328600 0.000019 0.000005 -0.742804 -0.695648 -46.880700 22.291600 -0.000001 0.000005 11.643000 5.566800 -9.525680 12.994500 -0.242716 -4.980390 88.241600 4.855380 -70.064400 -5.348130 -0.000001 -0.000004 -70.885100 23.874800 -0.629567 -24.328900 0.000322 -0.000009 1.921540 13.108400 -8.419220 -22.291500 -0.000108 -0.000004 9.110450 5.318710 -0.458622 -2.192480 -6.469440 -0.000000 -174.775000 -12.528700 8.120220 39.081100 -0.000007 -0.000012 -0.026260 0.088350 16.553100 40.985400 -0.000006 -0.000013 4.376490 21.706600 -74.721200 11.754300 -0.000000 0.000003 -0.014157 -0.132452 -21.979600 -2.192510 6.469440 -0.000001 -166.135000 21.866000 151.820000 -39.081100 -0.002282 -0.040193 0.004090 -0.003514 12.123400 -40.985400 0.000008 0.000006 -7.889540 -2.848870 -50.119500 -11.754300 -0.000006 -0.000006 -0.026861 -0.202702 -24.870200
0.000000 0.000000 0.000000 0.000000 0.000000 -0.000000 148.313000 89.777100 -107.413000 85.884900 8.750560 -1.186670 15.735700 0.000005 -0.000001 58.526600 83.275800 -57.230500 8.984550 -0.406207 -0.000000 3.809280 -7.056760 2.826750 16.377300 -0.000001 -0.000001 1.298970 -4.333310 -0.093771 6.456720 -0.000001 -0.000000 0.192495 -2.528060 0.259385 12.994200 -0.242716 4.980390 -89.387600 -2.238130 -74.694000 5.348090 -0.000007 -0.000001 -50.235500 29.062800 -45.586100 24.328600 0.000019 0.000005 -0.900111 -0.832581 -47.236600 22.291600 -0.000001 0.000005 11.726200 5.571160 -9.747750 12.994500 -0.242716 -4.980390 88.197500 4.867800 -69.652500 -5.348130 -0.000001 -0.000004 -70.563500 22.868700 -0.423757 -24.328900 0.000322 -0.000009 1.932310 13.036100 -8.511170 -22.291500 -0.000108 -0.000004 9.546010 5.320390 -0.506055 -2.192480 -6.469440 -0.000000 -174.085000 -11.200900 8.534310 39.081100 -0.000007 -0.000012 -0.025740 0.074387 19.086800 40.985400 -0.000006 -0.000013 5.361530 22.678600 -76.136500 11.754300 -0.000000 0.000003 -0.021492 -0.175427 -23.747100 -2.192510 6.469440 -0.000001 -164.512000 21.819500 150.090000 -39.081100 -0.002282 -0.040193 -0.002911 0.023765 14.716800 -40.985400 0.000008 0.000006 -3.822150 -6.106020 -50.686500 -11.754300 -0.000006 -0.000006 -0.027700 -0.206723 -25.036700
0.000000 0.000000 0.000000 0.000000 0.000000 -0.000000 148.285000 89.224900 -103.654000 85.639600 9.946020 -1.222490 15.735700 0.000005 -0.000001 56.401200 83.394100 -54.656100 8.984550 -0.406207 -0.000000 3.377250 -7.369570 3.707830 16.377300 -0.000001 -0.000001 1.428680 -4.601240 -0.348432 6.456720 -0.000001 -0.000000 0.393709 -2.548130 -0.268157 12.994200 -0.242716 4.980390 -89.538100 -1.701330 -74.808500 5.348090 -0.000007 -0.000001 -50.532900 30.205400 -43.975100 24.328600 0.000019 0.000005 -0.884792 -0.838208 -46.551100 22.291600 -0.000001 0.000005 11.759300 5.574360 -9.913570 12.994500 -0.242716 -4.980390 88.129400 4.953700 -69.282600 -5.348130 -0.000001 -0.000004 -70.175800 21.694200 -0.266453 -24.328900 0.000322 -0.000009 1.918770 12.573500 -8.753520 -22.291500 -0.000108 -0.000004 9.994680 5.324410 -0.623239 -2.192480 -6.469440 -0.000000 -172.698000 -10.359900 9.008210 39.081100 -0.000007 -0.000012 -0.022966 0.055889 22.338300 40.985400 -0.000006 -0.000013 6.588250 24.248500 -76.415600 11.754300 -0.000000 0.000003 -0.037075 -0.248247 -26.766400 -2.192510 6.469440 -0.000001 -163.685000 20.030400 149.199000 -39.081100 -0.002282 -0.040193 -0.015344 0.053608 19.198500 -40.985400 0.000008 0.000006 8.533750 -6.427960 -49.332800 -11.754300 -0.000006 -0.000006 -0.030577 -0.220097 -25.591300
0.000000 0.000000 0.000000 0.000000 0.000000 -0.000000 148.278000 88.910800 -99.525800 84.694900 10.993300 -0.682308 15.735700 0.000005 -0.000001 56.198100 83.531000 -53.748200 8.984550 -0.406207 -0.000000 3.168160 -7.288530 5.101680 16.377300 -0.000001 -0.000001 1.620610 -4.836270 -0.617870 6.456720 -0.000001 -0.000000 0.869661 -2.671170 -0.967592 12.994200 -0.242716 4.980390 -89.766200 -0.866294 -74.895200 5.348090 -0.000007 -0.000001 -51.174100 32.213100 -41.674300 24.328600 0.000019 0.000005 -0.387208 -0.392030 -44.628600 22.291600 -0.000001 0.000005 11.381300 5.570600 -9.719180 12.994500 -0.242716 -4.980390 87.923700 5.420170 -69.003100 -5.348130 -0.000001 -0.000004 -69.389100 20.986700 -0.512155 -24.328900 0.000322 -0.000009 1.779220 11.848100 -8.607930 -22.291500 -0.000108 -0.000004 10.001100 5.325630 -0.658553 -2.192480 -6.469440 -0.000000 -170.540000 -9.387430 9.245000 39.081100 -0.000007 -0.000012 -0.016773 0.033400 26.665200 40.985400 -0.000006 -0.000013 6.944760 25.915100 -74.307500 11.754300 -0.000000 0.000003 -0.063865 -0.344149 -30.804000 -2.192510 6.469440 -0.000001 -164.828000 14.967500 149.644000 -39.081100 -0.002282 -0.040193 -0.016350 0.044229 23.969300 -40.985400 0.000008 0.000006 12.157900 -11.558500 -47.584300 -11.754300 -0.000006 -0.000006 -0.022293 -0.179674 -23.918500
